# xmcd
#
# Track frame offsets:
#	150
#	16546
#	39796
#	60196
#	82667
#	102017
#	125567
#	137717
#	165542
#
# Disc length: 2601 seconds
#
# Revision: 1
# Processed by: cddbd v1.5.2PL0 Copyright (c) Steve Scherf et al.
# Submitted via: audiograbber 1.83.01
#
DISCID=550a2709
DTITLE=Bobby Blackhat Walters - You Changed Your Mind Again
DYEAR=2008
DGENRE=Blues
TTITLE0=You Changed Your Mind Again
TTITLE1=Put On Your Red Shoes
TTITLE2=Help Me
TTITLE3=No Room For You
TTITLE4=Nursery Rhyme Shuffle
TTITLE5=Please Give Me A Clue
TTITLE6=Out Late With The Devil
TTITLE7=I Hear Mama's Voice
TTITLE8=Grim Reaper
EXTD=
EXTT0=
EXTT1=
EXTT2=
EXTT3=
EXTT4=
EXTT5=
EXTT6=
EXTT7=
EXTT8=
PLAYORDER=
